<?xml version="1.0" standalone="no"?>
<!DOCTYPE svg PUBLIC "-//W3C//DTD SVG 1.1//EN" "http://www.w3.org/Graphics/SVG/1.1/DTD/svg11.dtd" >
<!--
2013-9-30: Created.
-->
<svg>
<metadata>
Created by iconfont
</metadata>
<defs>

<font id="iconfont" horiz-adv-x="1024" >
  <font-face
    font-family="iconfont"
    font-weight="500"
    font-stretch="normal"
    units-per-em="1024"
    ascent="896"
    descent="-128"
  />
    <missing-glyph />
    
    <glyph glyph-name="shouji" unicode="&#58912;" d="M737.684 881.526h-451.246c-40.503 0-73.221-31.016-73.221-69.207v-857.854c0-38.070 32.718-69.329 73.221-69.329h451.368c40.624 0 73.221 31.259 73.221 69.329l-0 857.854c-0.122 38.192-32.718 69.207-73.343 69.207v0 0zM501.114-86.646c-20.191 0-36.611 15.569-36.611 34.786 0 18.974 16.298 34.664 36.611 34.664 20.191 0 36.489-15.569 36.489-34.664 0-19.339-16.42-34.786-36.489-34.786v0 0zM769.064 12.847h-514.007v823.311h514.007v-823.311zM769.064 12.847z"  horiz-adv-x="1024" />

    
    <glyph glyph-name="yanjing" unicode="&#58890;" d="M941.677 504.29c9.338 14.006 6.225 32.681-6.225 43.575-14.006 10.894-32.681 7.781-43.575-6.225-1.557-1.556-174.3-205.426-379.728-205.426-199.2 0-379.727 205.426-381.283 206.982-10.895 12.45-31.125 14.006-43.576 3.113-12.45-10.894-14.006-31.125-3.113-43.576 3.113-4.668 40.463-46.687 99.6-93.375l-79.37-82.482c-12.45-12.45-10.893-32.681 1.557-43.575 3.113-6.225 10.894-9.338 18.676-9.338 7.78 0 15.562 3.113 21.787 9.338l85.594 88.706c40.463-28.013 88.707-54.47 141.62-73.144l-32.682-110.495c-4.668-17.118 4.67-34.237 21.788-38.906h9.337c14.006 0 26.457 9.338 29.569 23.344l32.681 110.495c24.9-4.669 51.357-7.782 77.813-7.782s52.913 3.113 77.814 7.782l32.68-108.939c3.114-14.006 17.12-23.343 29.57-23.343 3.113 0 6.225 0 7.782 1.556 17.118 4.67 26.456 21.787 21.788 38.906L649.099 300.42c52.914 18.676 101.157 45.132 141.62 73.144l84.038-87.15c6.225-6.225 14.006-9.338 21.787-9.338 7.781 0 15.563 3.113 21.787 9.337 12.45 12.451 12.45 31.125 1.557 43.576l-79.37 82.481c63.808 46.689 101.16 91.82 101.16 91.82z"  horiz-adv-x="1024" />

    
    <glyph glyph-name="weibo" unicode="&#58887;" d="M465.865 385.993c-101.027-4.665-182.726-58.791-182.726-126.31 0-67.44 81.698-118.103 182.726-113.381 101.136 4.592 182.982 67.885 182.982 135.311-0.001 67.367-81.845 109.028-182.982 104.381z m68.862-169.816c-30.945-39.948-92.173-59.456-151.65-27.255-28.289 15.362-27.238 45.513-27.238 45.513s-11.769 95.201 89.885 107.077c101.765 11.822 119.948-85.389 89.004-125.335zM418.394 266.83799999999997c-18.995-1.977-32.569-18.535-32.569-34.339 0-15.878 15.27-26.814 34.266-24.586 18.883 2.144 34.267 16.746 34.267 32.573 0 15.857-14.164 28.435-35.963 26.353zM466.546 279.913c-6.51-4.723-7.839-13.722-4.298-19.343 3.394-5.778 11.325-6.441 17.74-1.628 6.273 4.965 8.707 13.596 5.313 19.35-3.394 5.622-11.212 7.229-18.756 1.62zM512.278 890.332c-280.665 0-508.19-227.523-508.19-508.19s227.523-508.19 508.19-508.19 508.19 227.523 508.19 508.19S792.945 890.332 512.278 890.332z m226.895-653.463c-41.676-88.486-179.035-131.568-280.835-123.581-96.748 7.616-221.14 39.744-233.995 156.814 0 0-6.786 53.04 44.63 121.646 0 0 73.916 103.258 160.041 132.729 86.198 29.305 96.231-20.306 96.231-49.628-4.572-24.898-13.131-39.523 19.217-29.47 0 0 84.723 39.28 119.581 4.425 28.144-28.141 4.647-66.851 4.647-66.851s-11.654-12.927 12.358-17.577c24.081-4.796 99.767-39.872 58.123-128.507z m-83.539 244.473c-9.223 0-16.638 7.451-16.638 16.618 0 9.312 7.413 16.762 16.638 16.762 0 0 103.845 19.22 91.434-92.394 0-0.663-0.073-1.181-0.221-1.771-1.181-7.891-8.134-13.959-16.321-13.959-9.237 0-16.765 7.395-16.765 16.617 0-0.001 16.451 74.596-58.128 58.131z m175.568-89.264h-0.149c-2.731-18.882-12.115-20.397-23.275-20.397-13.351 0-24.159 8.412-24.159 21.764 0 11.582 4.793 23.345 4.793 23.345 1.422 4.869 12.727 35.189-7.449 80.446-36.922 62.038-111.314 62.96-120.096 59.417-8.851-3.465-21.942-5.235-21.942-5.235-13.43 0-24.217 10.955-24.217 24.234 0 11.174 7.471 20.619 17.649 23.493 0 0 0.218 0.369 0.591 0.444 0.737 0.148 1.477 0.906 2.288 0.979 10.345 1.972 47.285 9.237 83.173 0.83 64.253-15.013 152.444-77.125 112.791-209.319z"  horiz-adv-x="1024" />

    
    <glyph glyph-name="weixin" unicode="&#58888;" d="M321.892174 562.086957a34.281739 34.281739 0 0 1-36.730435-30.497392 34.281739 34.281739 0 0 1 36.730435-30.497391 30.497391 30.497391 0 0 1 0 60.994783zM492.410435 500.646957a30.497391 30.497391 0 0 1 0 60.994782 34.05913 34.05913 0 0 1-36.507826-30.497391 34.05913 34.05913 0 0 1 36.507826-30.497391zM571.65913 384a24.486957 24.486957 0 0 1 0-48.751304 27.603478 27.603478 0 0 1 30.497392 24.264347 27.826087 27.826087 0 0 1-30.497392 24.486957zM501.76 873.73913a489.73913 489.73913 0 1 1 489.73913-489.73913 489.73913 489.73913 0 0 1-489.73913 489.73913zM400.695652 250.43478300000004a418.949565 418.949565 0 0 0-85.481739 12.243478l-85.036522-42.74087 24.264348 73.238261c-60.994783 42.74087-97.502609 97.725217-97.502609 164.507826 0 115.97913 109.746087 207.248696 244.869566 207.248696 119.763478 0 224.834783-73.015652 244.869565-171.186087A206.135652 206.135652 0 0 1 623.304348 495.304348c-115.756522 0-207.248696-86.372174-207.248696-192.779131A184.987826 184.987826 0 0 1 422.956522 250.43478300000004h-22.26087z m359.513044-85.48174l18.921739-60.549565-66.782609 36.507826a312.987826 312.987826 0 0 0-73.238261-12.243478c-115.97913 0-207.248696 79.248696-207.248695 176.973913s91.269565 176.751304 207.248695 176.751304c109.523478 0 207.026087-79.471304 207.026087-176.751304-0.222609-55.206957-36.730435-103.735652-85.481739-140.466087zM705.669565 384a24.486957 24.486957 0 0 1 0-48.751304 27.826087 27.826087 0 0 1 30.497392 24.264347A28.048696 28.048696 0 0 1 705.669565 384z"  horiz-adv-x="1024" />

    
    <glyph glyph-name="suo" unicode="&#58919;" d="M266.485514-38.48951l-9.206793 0.511488c2.557443 0 5.626374-0.511489 9.206793-0.511488z m-101.786213 360.087912v-9.206794 9.206794z m794.341658 92.57942c-4.603397 45.010989-46.545455 80.303696-97.694306 80.815185l-547.804195-0.511489-0.511489 134.521479v0.511489h0.511489c0.511489 97.182817 89.51049 175.952048 198.457542 175.952047 103.320679 0 187.716284-70.073926 197.434565-160.095904-2.557443-5.114885-3.58042-10.741259-3.580419-16.367632l0.511488-1.534466c0-24.551449 22.505495-44.4995 49.614386-44.4995s49.614386 19.948052 49.614386 44.4995l-0.511489 1.534466v0.511489h3.58042v0.511488c0 146.797203-132.987013 265.462537-297.174826 265.462537-162.141858 0-294.105894-116.107892-297.174825-260.347652-0.511489-2.045954-0.511489-4.091908-0.511488-6.649351l0.511488-92.57942v-41.942058h-58.821179c-50.637363-4.091908-90.021978-42.453546-90.021978-88.487513v-47.056943h-0.511488l0.511488-349.858141v-47.056943c0-49.102897 44.4995-88.999001 99.74026-88.999001h49.614386v-0.511489l596.395604 0.511489h49.614386c54.217782 0 98.205794 38.873127 99.228771 86.953046l-1.022977 454.713287z m-98.717283-8.183816v-30.177822l-1.022977 30.177822h1.022977zM164.187812-37.978022l-0.511488 443.972028h1.022977l-0.511489-84.395604c1.022977 70.585415 21.482517 83.372627 99.228771 83.372627l-31.712287 0.511488h26.085914c3.58042-0.511489 7.160839-0.511489 11.252747 0l537.574426 0.511489-46.033966-1.022977c73.654346 0 96.15984-11.252747 99.228771-72.11988l0.511488-291.548452c-1.534466-61.89011-20.45954-77.746254-83.884116-79.792207l-612.251748 0.511488z m637.314686 0l58.30969 0.511489 0.511488 71.096903v-71.608392h-58.821178z m-636.803197 80.815185v9.206793c-0.511489-3.068931-0.511489-6.137862 0-9.206793z m-0.511489 4.091908l0.511489-84.395604 92.067932-0.511489c-72.11988 1.022977-91.556444 15.856144-92.579421 84.907093z"  horiz-adv-x="1024" />

    
    <glyph glyph-name="zhifubao" unicode="&#58902;" d="M230.829979 317.33697199999995a76.635425 76.635425 0 0 1-28.383491-41.723731 85.150473 85.150473 0 0 1 22.706793-79.473775 150.432502 150.432502 0 0 1 91.111006-38.601548 242.111177 242.111177 0 0 1 146.742648 50.806449 321.868787 321.868787 0 0 1 70.107222 69.255718c-59.037661 30.65417-132.834737 64.430524-211.740842 61.024505a206.347979 206.347979 0 0 1-90.259501-21.287618z m749.32416-134.537747a510.902836 510.902836 0 1 1-56.766982-99.342218c-87.704987 43.426741-231.893121 115.236973-321.017282 158.663714A392.543679 392.543679 0 0 0 427.243736 123.76156400000002a252.613069 252.613069 0 0 0-126.590369-9.650387 167.746431 167.746431 0 0 0-89.975666 47.40043 165.191917 165.191917 0 0 0-28.383491 37.750043 19.868444 19.868444 0 0 1 0-3.122184 77.770765 77.770765 0 0 0-7.663543 19.300774 97.639209 97.639209 0 0 0-3.406019 18.165434 99.058383 99.058383 0 0 0 0 13.056406 113.533964 113.533964 0 0 0 1.70301 23.842132 124.31969 124.31969 0 0 0 36.898538 65.565864 204.644969 204.644969 0 0 0 148.161823 49.954944A776.856146 776.856146 0 0 0 569.161191 337.77308600000003a723.779018 723.779018 0 0 1 41.723731 120.629836H305.47856v33.208684h156.67687v65.849699H272.269876v33.208685h189.885554V656.519688c0 9.082717 1.703009 16.462425 16.462425 16.462425h74.364746v-82.312123h206.347979v-33.208685h-206.347979v-65.849699h164.908082a644.021408 644.021408 0 0 0-68.404213-183.641186c115.236973-40.020722 277.022871-104.451247 330.667669-125.171195z m0 0"  horiz-adv-x="1026" />

    
    <glyph glyph-name="yanjing1" unicode="&#58889;" d="M515.2 672C208 672 22.4 358.4 22.4 358.4s214.4-304 492.8-304 492.8 304 492.8 304S822.4 672 515.2 672zM832 243.2c-102.4-86.4-211.2-140.8-320-140.8s-217.6 51.2-320 140.8c-35.2 32-70.4 64-99.2 99.2-6.4 6.4-9.6 12.8-16 19.2 3.2 6.4 9.6 12.8 12.8 19.2 25.6 35.2 57.6 70.4 92.8 102.4 99.2 89.6 208 144 329.6 144s230.4-54.4 329.6-144c35.2-32 64-67.2 92.8-102.4 3.2-6.4 9.6-12.8 12.8-19.2-3.2-6.4-9.6-12.8-16-19.2-28.8-32-60.8-67.2-99.2-99.2zM512 550.4c-96 0-169.6-76.8-169.6-169.6 0-96 76.8-169.6 169.6-169.6 96 0 169.6 76.8 169.6 169.6S604.8 550.4 512 550.4z m0-294.4c-67.2 0-121.6 54.4-121.6 121.6 0 67.2 54.4 121.6 121.6 121.6 67.2 0 121.6-54.4 121.6-121.6 0-64-54.4-121.6-121.6-121.6z"  horiz-adv-x="1024" />

    
    <glyph glyph-name="verified_user-24px" unicode="&#58891;" d="M512 853.333333L128 682.666667v-256c0-236.8 163.84-458.24 384-512 220.16 53.76 384 275.2 384 512V682.666667l-384 170.666666z m298.666667-426.666666c0-192.853333-127.146667-370.773333-298.666667-423.68-171.52 52.906667-298.666667 230.826667-298.666667 423.68V627.2l298.666667 132.693333 298.666667-132.693333V426.666667z m-494.506667-25.173334L256 341.333333l170.666667-170.666666 341.333333 341.333333-60.16 60.586667L426.666667 291.413333z"  horiz-adv-x="1024" />

    
    <glyph glyph-name="shoucang" unicode="&#58892;" d="M327.728136 91.69872399999997l150.60509 60.966537 33.721009 13.627369 33.721009-13.627369 150.609183-60.914348-4.484128 166.562527-0.907673 32.985252 20.663622 25.711592 96.563266 120.353089L652.842749 484.425224l-30.030967 9.081843-17.825994 25.716708-92.931552 134.033669-92.871177-134.033669-17.825994-25.716708-30.033014-9.081843-155.490354-47.120181 96.566336-120.29476 20.663622-25.711592-0.907673-32.985252L327.728136 91.69872399999997M789.940197-43.129031000000055L512.054235 69.27296899999999 234.17339-43.129031000000055l8.115841 303.886125L62.389956 484.824313l282.879696 85.667102L512.054235 811.130054l166.843936-240.638639 282.711873-85.667102L781.766027 260.756071 789.940197-43.129031000000055 789.940197-43.129031000000055 789.940197-43.129031000000055z"  horiz-adv-x="1024" />

    
    <glyph glyph-name="zuosanjiao" unicode="&#58880;" d="M661.7685 566.4174v-499.6612296862727l-298.8097 250.2273L661.7685 566.4174zM661.7685 566.4174"  horiz-adv-x="1000" />

    
    <glyph glyph-name="yuanren" unicode="&#58921;" d="M513.022795 831.184809c-246.972904 0-447.184809-200.211904-447.184809-447.184809s200.211904-447.184809 447.184809-447.184809 447.184809 200.211904 447.184809 447.184809S759.995699 831.184809 513.022795 831.184809zM513.022795-27.369092c-232.844116 0-411.369092 178.524976-411.369092 411.369092s178.524976 411.369092 411.369092 411.369092 411.369092-178.524976 411.369092-411.369092S745.86691-27.369092 513.022795-27.369092zM510.293637 371.720326c-76.644611 0-138.998751 62.355163-138.998751 138.998751 0 76.644611 62.355163 138.998751 138.998751 138.998751 76.643588 0 138.998751-62.355163 138.998751-138.998751C649.292388 434.075489 586.937225 371.720326 510.293637 371.720326zM510.293637 613.903134c-56.895825 0-103.183034-46.288233-103.183034-103.183034s46.288233-103.183034 103.183034-103.183034 103.183034 46.287209 103.183034 103.183034S567.188438 613.903134 510.293637 613.903134zM775.671727 145.128611 250.373863 145.128611l0 17.907858c0 32.762171 7.629771 64.802912 22.677489 95.235015 14.106276 28.528754 34.045397 54.346769 59.260685 76.740802 50.241264 44.617174 116.107391 70.205968 180.709735 70.205968s130.46847-25.588795 180.710758-70.205968c25.216311-22.394033 45.154409-48.212048 59.260685-76.740802 15.047718-30.432103 22.677489-62.473867 22.677489-95.235015L775.670703 145.128611zM287.176047 180.944328l451.694519 0C727.800439 281.67245 625.137245 369.40356 513.022795 369.40356S298.24515 281.67245 287.176047 180.944328z"  horiz-adv-x="1024" />

    
    <glyph glyph-name="zuosanjiao-copy" unicode="&#58883;" d="M404.89816666666655 105.58260000000018l1.7053025658242404e-13 499.6612296862727 298.8096999999999-250.22730000000016L404.89816666666655 105.58260000000018zM404.89816666666655 105.58260000000018"  horiz-adv-x="1000" />

    
    <glyph glyph-name="lipinhe" unicode="&#58918;" d="M736.9-1H287.3c-45.2 0-82 36.8-82 82V487.7h613.6V81c0-45.2-36.8-82-82-82zM269.3 423.7V81c0-9.9 8.1-18 18-18H737c9.9 0 18 8.1 18 18V423.7H269.3zM512.1-1c-17.7 0-32 14.3-32 32V580.6c0 17.7 14.3 32 32 32s32-14.3 32-32V31c0-17.7-14.3-32-32-32zM824.4 423.7H199.8c-52.1 0-94.5 42.4-94.5 94.5s42.4 94.5 94.5 94.5h624.5c52.1 0 94.5-42.4 94.5-94.5s-42.3-94.5-94.4-94.5zM199.8 548.6c-16.8 0-30.5-13.7-30.5-30.5s13.7-30.5 30.5-30.5h624.5c16.8 0 30.5 13.7 30.5 30.5s-13.7 30.5-30.5 30.5H199.8zM547.3 548.6H296.1l-9.6 13.5c-20.3 28.6-32.7 59.2-35.8 88.6-3.6 33.8 5.8 63.8 26.5 84.5 47.4 47.4 137.1 31.8 204.3-35.3 33.8-33.8 55.4-74.6 60.9-114.9l4.9-36.4z m-217.3 64h137c-7.5 14.6-18 29-30.9 41.9-42.6 42.6-95.2 53.8-113.7 35.3-8.6-8.6-9.1-22.4-8.1-32.5 1.5-14 7-29.5 15.7-44.7zM728.2 548.6H477l4.9 36.3c5.5 40.2 27.1 81 60.9 114.9C610 767 699.7 782.5 747 735.1c20.7-20.7 30.1-50.7 26.5-84.5-3.1-29.3-15.5-60-35.8-88.6l-9.5-13.4z m-171 64h137c8.8 15.3 14.2 30.8 15.7 44.8 1.1 10.1 0.5 23.9-8.1 32.5-18.5 18.5-71.1 7.3-113.7-35.3-12.9-13-23.4-27.4-30.9-42z"  horiz-adv-x="1024" />

    
    <glyph glyph-name="zheng" unicode="&#58926;" d="M934.55358 770.68107l-376.496378 120.462653c-20.504281 6.475036-42.762218 6.475036-63.401396 0L118.429222 770.68107C86.458731 760.428929 65.010173 731.156369 65.010173 697.971809v-264.532209c0-152.837834 74.32802-298.12146 198.702674-388.637071l217.048611-157.829008c13.489659-9.712554 29.27256-14.973521 45.729943-14.973521 16.59228 0 32.510078 5.12607 45.729943 14.838625L789.269954 44.802529c124.374654 90.650507 198.702674 235.934133 198.702675 388.637071V697.971809c-0.134897 33.184561-21.448558 62.45712-53.419049 72.709261z m2.158345-337.24147h-0.134896c0-136.78514-66.504018-266.690555-177.793703-347.763405L541.734715-72.017916c-9.038071-6.475036-21.718351-6.609933-30.756422 0l-216.913713 157.829008C182.774894 166.749045 116.270877 296.789356 116.270877 433.4396v264.397312c0 11.196417 7.284416 20.908971 18.076142 24.281386l376.226584 120.462653c5.12607 1.753656 10.521934 2.563035 15.917798 2.563035s10.65683-0.80938 15.782901-2.563035l376.36148-120.462653c10.65683-3.372415 18.076143-13.219866 18.076143-24.281386v-264.397312z m0 0M793.181955 216.256093v-27.384008H275.44885v27.384008h84.040575V499.404031h28.598077v-283.013042h144.744039V616.08958h-233.371098V643.473587h473.352128v-27.384007H561.429617v-171.58846h191.957845V417.117112H561.429617v-200.726123h231.752338z"  horiz-adv-x="1401" />

    
    <glyph glyph-name="gouwuche5" unicode="&#58881;" d="M407.06393671 211.27915048q12.38375903 0 23.46396447-4.56243753t19.55330371-12.70964742 13.03553581-19.22741531 4.56243754-23.46396447-4.56243754-23.46396446-13.03553581-19.22741532-19.55330371-13.03553582-23.46396446-4.88832593q-13.03553581 0-23.78985287 4.88832593t-19.22741532 13.03553582-13.03553581 19.22741532-4.56243754 23.46396446 4.56243754 23.46396447 13.03553581 19.22741531 19.22741532 12.70964742 23.78985287 4.56243754zM678.20308162 209.97559690000003q12.38375903 0 23.78985285-4.56243753t19.55330372-12.70964742 13.03553581-19.22741532 4.88832592-23.46396445-4.88832592-23.46396447-13.03553581-19.22741533-19.55330372-13.03553581-23.78985286-4.88832593-23.46396447 4.88832593-19.22741532 13.03553581-13.03553581 19.22741533-4.88832593 23.46396447 4.88832593 23.46396445 13.03553581 19.22741532 19.22741532 12.70964742 23.46396447 4.56243753zM787.70158243 580.18481398q18.24975014 0 28.35229039-4.88832593t14.3390894-12.05787063 3.91066074-15.31675458-2.28121877-14.013201-8.14720988-24.11574126-14.013201-40.08427261-15.31675458-43.34315659-11.40609383-33.8923931q-8.47309828-26.07107163-21.50863409-36.17361188t-31.93706274-10.10254026l-22.16041088 0-42.3654914 0-55.4010272 0-60.61524152 0-161.64064408 0 9.77665185-58.65991116 328.49550249 0q31.28528595 0 31.28528594-26.72284841 0-13.03553581-6.19187951-22.48629928t-24.44162964-9.45076346l-31.28528595 0-60.61524153 0-74.95433093 0-76.25788449 0-62.5705719 0-35.84772349 0q-13.03553581 0-21.83452249 5.86599111t-14.66497778 15.31675458-9.45076347 20.53096891-5.54010271 20.8568573q-0.65177679 3.91066074-3.58477236 18.90152693t-7.16954469 37.47716546-9.45076348 50.18681288-10.42842864 55.72691559q-12.38375903 65.82945586-28.02640199 146.64977789l-48.88325931 0q-9.77665186 0-16.29441976 4.88832594t-10.75431704 11.73198223-5.86599111 14.66497778-1.62944199 14.3390894q0 13.03553581 8.79898668 21.50863409t23.78985286 8.47309827l14.3390894 0 13.0355358 0 16.29441977 0 22.16041088 0q13.03553581 0 20.8568573-3.91066074t12.38375902-9.77665186 6.51776791-12.38375902 3.25888394-11.08020544q1.30355359-5.21421433 2.60710717-14.66497779t2.60710716-19.22741532q1.95533037-11.73198223 3.91066074-24.76751805l445.81532479 0z"  horiz-adv-x="1024" />

    
    <glyph glyph-name="xiaoxi" unicode="&#58978;" d="M242.962858-127.998912a89.062863 89.062863 0 0 0-43.683366 11.200863c-38.963003 21.393649-39.043009 63.332881-39.107014 103.880006 0 47.299645-0.160012 100.903776-46.115554 156.412053C46.691733 224.844279 8.080758 331.988536 8.080758 437.436662 8.080758 690.256145 234.146179 896 511.99159 896s503.910833-205.727854 503.910833-458.595341c0-117.113025-48.14771-228.817633-135.578448-314.696251-95.76738-94.007244-230.417757-146.411283-368.988435-143.851085-48.883767 0.78406-97.415507-28.402189-144.443132-56.756374-40.963157-24.737906-83.094403-50.099861-123.92955-50.099861z m269.028732 953.673493c-239.090425 0-433.633417-174.173422-433.633417-388.25392 0-89.350886 32.738523-180.157883 89.830923-249.107197 62.068783-74.965777 62.196793-150.891628 62.260798-201.1355 0-16.001233 0-37.89092 3.440265-43.203329 17.601356-9.34472 57.828456 14.881147 96.695452 38.306952 52.94808 31.970464 113.752766 67.925234 182.06203 66.885154 120.55329-2.224171 236.050191 42.867303 318.424538 123.737535 73.845691 72.485586 114.520825 166.412824 114.520826 264.516385 0 214.080498-194.51099 388.237919-433.601415 388.237918zM511.639563 442.621061m-54.580206 0a54.580206 54.580206 0 1 1 109.160412 0 54.580206 54.580206 0 1 1-109.160412 0ZM744.201485 442.621061m-54.580206 0a54.580206 54.580206 0 1 1 109.160412 0 54.580206 54.580206 0 1 1-109.160412 0ZM279.077641 442.621061m-54.580206 0a54.580206 54.580206 0 1 1 109.160412 0 54.580206 54.580206 0 1 1-109.160412 0Z"  horiz-adv-x="1024" />

    
    <glyph glyph-name="sousuo" unicode="&#58979;" d="M838.34 85.77L698.07 226.05c47.99 49.03 77.7 116.03 77.7 189.89 0 149.84-121.91 271.74-271.74 271.74-149.85 0-271.75-121.9-271.75-271.74S354.18 144.2 504.03 144.2c53.98 0 104.22 16.01 146.55 43.26 0.52-0.6 0.71-1.36 1.29-1.94l143.11-143.11c5.99-5.99 13.84-8.98 21.68-8.98 7.85 0 15.69 2.99 21.68 8.98 11.98 11.98 11.98 31.38 0 43.36zM273.17 415.93c0 127.3 103.57 230.85 230.86 230.85s230.85-103.56 230.85-230.85-103.55-230.85-230.85-230.85-230.86 103.55-230.86 230.85z"  horiz-adv-x="1024" />

    
    <glyph glyph-name="cart" unicode="&#58882;" d="M332.8 105.47199999999998q19.456 0 36.864-7.168t30.208-19.968 20.48-30.208 7.68-36.864-7.68-36.864-20.48-30.208-30.208-20.48-36.864-7.68q-20.48 0-37.888 7.68t-30.208 20.48-20.48 30.208-7.68 36.864 7.68 36.864 20.48 30.208 30.208 19.968 37.888 7.168zM758.784 103.42399999999998q19.456 0 37.376-7.168t30.72-19.968 20.48-30.208 7.68-36.864-7.68-36.864-20.48-30.208-30.72-20.48-37.376-7.68-36.864 7.68-30.208 20.48-20.48 30.208-7.68 36.864 7.68 36.864 20.48 30.208 30.208 19.968 36.864 7.168zM930.816 685.056q28.672 0 44.544-7.68t22.528-18.944 6.144-24.064-3.584-22.016-13.312-37.888-22.016-62.976-23.552-68.096-18.944-53.248q-13.312-40.96-33.28-56.832t-49.664-15.872l-35.84 0-65.536 0-86.016 0-96.256 0-253.952 0 14.336-92.16 517.12 0q49.152 0 49.152-41.984 0-20.48-9.728-35.84t-38.4-14.336l-49.152 0-94.208 0-118.784 0-119.808 0-99.328 0-55.296 0q-20.48 0-34.304 9.216t-23.04 24.064-14.848 32.256-8.704 32.768q-1.024 6.144-5.632 29.696t-11.264 58.88-14.848 78.848-16.384 87.552q-19.456 103.424-44.032 230.4l-76.8 0q-15.36 0-25.6 7.68t-16.896 18.432-9.216 23.04-2.56 22.528q0 20.48 13.824 33.792t37.376 12.288l103.424 0q20.48 0 32.768-6.144t19.456-15.36 10.24-18.944 5.12-16.896q2.048-8.192 4.096-23.04t4.096-30.208q3.072-18.432 6.144-38.912l700.416 0zM892.928 593.9200000000001l-641.024 2.048 35.84-185.344 535.552-1.024z"  horiz-adv-x="1028" />

    
    <glyph glyph-name="zhongfuwangge" unicode="&#58900;" d="M804.750997 139.264466a67.910997 67.910997 0 0 0-25.310212-46.070274l-19.281263-15.413635c-84.291538-67.285351-258.44855 12.740421-396.431865 182.006021-95.041269 116.654484-147.879892 245.651251-138.267699 336.711139a122.228418 122.228418 0 0 0 42.373277 85.315322l19.281263 15.356758a69.67418 69.67418 0 0 0 97.430098-10.465346l62.56457-76.442529a69.731057 69.731057 0 0 0-10.351593-96.690698l-19.281262-15.413635a29.17784 29.17784 0 0 1-10.692854-20.873816c-1.82006-17.063064 4.152012-57.218143 64.839645-131.783734 71.266733-87.533521 118.702052-101.127095 139.234606-84.746554l19.281263 15.413635a69.844811 69.844811 0 0 0 97.430098-10.408469l62.564569-76.499406a67.910997 67.910997 0 0 0 15.015497-50.392917z m-540.330375 453.138116c-8.531532-79.912019 42.3164-200.832269 129.67929-308.045191 120.01022-147.254246 276.194137-227.962541 341.26129-176.318333l19.281262 15.356758a30.144747 30.144747 0 0 1 4.436397 41.690755l-62.56457 76.499405a30.144747 30.144747 0 0 1-42.032015 4.493274l-19.281263-15.413635c-22.011353-17.51808-85.315322-43.852076-194.632689 90.661749a244.570591 244.570591 0 0 0-73.371177 160.449683 67.85412 67.85412 0 0 0 25.082705 47.094058l19.281263 15.413635a30.08787 30.08787 0 0 1 4.436397 41.633877l-62.56457 76.499406a30.08787 30.08787 0 0 1-42.032016 4.493274l-19.281262-15.356759a83.552139 83.552139 0 0 1-27.983426-59.208833z m688.608405-468.494874a511.891934 511.891934 0 1 1-191.959475-187.12494 485.273553 485.273553 0 0 1 56.080605 36.514958 28.893456 28.893456 0 0 1 12.22853 15.925527 26.618381 26.618381 0 0 1-39.131295 30.08787 494.260101 494.260101 0 0 0-86.850998-52.212977c-3.696997-1.706306-7.450871-3.412613-11.375376-5.005166-1.080661-0.455015-7.450871-3.128228-1.137538-0.511892l-5.687688-2.331952c-8.190271-3.298859-16.494296-6.313334-24.855197-9.157178a484.477277 484.477277 0 0 0-49.084749-13.764205c-7.962763-1.82006-15.982404-3.355736-24.002044-4.720781l-12.171653-1.933814c-7.223364-1.080661 5.687688 0.739399-1.421922 0l-8.531532-1.023784a491.131872 491.131872 0 0 0-107.156045 0l-6.427087 0.739399c-7.223364 0.91003 5.687688-0.853153-1.421922 0a475.376976 475.376976 0 0 0-38.391895 7.052734 481.804064 481.804064 0 0 0-48.857242 13.764205c-7.678379 2.616337-15.299881 5.687688-22.750752 8.417779l-5.687689 2.275075c-6.427088 2.616337 5.232673-2.275075-1.137537 0.455015l-12.967929 5.687688a484.932292 484.932292 0 0 0-83.779647 49.937902l-4.663904 3.526367c-5.346427 4.038259 4.493274-3.526367-0.739399 0.568769a479.585865 479.585865 0 0 0-28.154057 23.945167 513.42761 513.42761 0 0 0-49.255379 52.1561l-3.640121 4.550151c-0.796276 0.966907-4.834535 6.256457-0.625645 0.739399-2.786967 3.583244-5.687688 7.223364-8.133394 10.863484a492.781302 492.781302 0 0 0-26.44775 40.666971 484.4204 484.4204 0 0 0-23.092014 44.932736l-2.445706 5.687688c-2.73009 6.313334 2.161321-5.28955-0.455015 1.080661a526.566169 526.566169 0 0 0-13.252314 36.11682 481.007787 481.007787 0 0 0-13.138559 49.198502 528.38623 528.38623 0 0 0-4.607028 25.139582l-0.966907 6.313334c-1.023784 7.166487 0.739399-5.687688 0 1.365045a434.710006 434.710006 0 0 0-1.592552 14.787989A490.278719 490.278719 0 0 0 56.876882 444.352059c0 1.251291 1.137538 8.247148 0 1.137538l0.91003 6.142703a460.873371 460.873371 0 0 0 7.735256 38.733156 483.112232 483.112232 0 0 0 14.731112 49.767272c2.73009 7.792133 5.687688 15.527389 8.92967 23.14889-2.673213-6.483964 0 0 0.398138 0.91003l2.388829 5.687689c1.876937 4.208889 3.867628 8.360902 5.687689 12.512914a486.24046 486.24046 0 0 0 51.814839 84.007154c-4.152012-5.687688 0 0 0.682522 0.853153l3.696998 4.607027 7.450871 8.929671c5.687688 6.427088 11.090992 12.626668 17.063065 18.712494a500.630311 500.630311 0 0 0 53.009253 48.288472c5.232673 4.152012-4.550151-3.46949 0.7394 0.568769l4.663904 3.46949c3.64012 2.73009 7.337118 5.346427 11.034115 7.905886a485.046046 485.046046 0 0 0 86.850998 48.288473c-6.427088-2.73009 0 0 0.966907 0.398138l5.687688 2.218198a523.722325 523.722325 0 0 0 36.059943 12.569791 481.974694 481.974694 0 0 0 51.189193 12.626668l12.456038 2.218198 6.256456 0.966907c1.194415 0 8.304025 1.137538 1.251292 0 9.043424 1.194415 18.143725 2.104445 27.244026 2.843844a489.653073 489.653073 0 0 0 52.667992 1.080661c8.417778 0 17.063064-0.796276 25.253336-1.478799 4.208889-0.341261 8.417778-0.796276 12.569791-1.251291l6.256457-0.7394q4.607027-0.568769-0.796277 0l4.152013-0.568769a485.444184 485.444184 0 0 0 51.644208-10.408469 478.448328 478.448328 0 0 0 49.027872-15.527389l11.375376-4.37952c1.137538-0.455015 7.450871-3.071352 1.023784-0.398138l5.687688-2.388829c7.905887-3.46949 15.698019-7.166487 23.433276-11.090992a484.989169 484.989169 0 0 0 43.283306-24.741443c6.711472-4.265766 13.252313-8.75904 19.736278-13.366067 3.185105-2.218198 6.256457-4.550151 9.384686-6.882103l4.607027-3.526367c-5.687688 4.436397 1.194415-0.966907 2.218199-1.82006a489.70995 489.70995 0 0 0 69.162287-67.683489c2.502583-2.957598 4.948289-5.972073 7.337118-8.986547l3.640121-4.607028c-4.265766 5.687688 0 0 0.568768-0.853153 5.118919-6.768349 10.010331-13.707328 14.731113-20.703185a487.719259 487.719259 0 0 0 25.253335-41.861384 452.341839 452.341839 0 0 0 15.470512-31.680424l2.331952-5.403303q1.763183-4.095135-0.398138 0.966907l1.478799-3.640121a479.528988 479.528988 0 0 0 16.721803-48.345349c4.37952-15.186127 7.962763-30.599762 10.863484-46.070274l2.104445-12.171653 0.91003-6.085826c1.023784-6.995856-0.739399 5.687688 0-1.080661 1.080661-8.190271 1.876937-16.380542 2.502583-24.570813a491.188749 491.188749 0 0 0-2.445706-98.965774q-0.568769-4.607027 0 0.796277l-0.91003-6.256457a478.448328 478.448328 0 0 0-7.223364-37.311234 477.765805 477.765805 0 0 0-13.422944-46.411536c-2.616337-7.564625-5.687688-15.072374-8.360902-22.750752l-2.275075-5.687689c2.673213 6.427088 0 0-0.455015-1.023783a481.178418 481.178418 0 0 0-27.35778-53.521146 26.618381 26.618381 0 1 1 45.95652-26.902765z"  horiz-adv-x="1024" />

    
    <glyph glyph-name="lanmu" unicode="&#58893;" d="M259.413333 597.333333h47.388445v47.388445H259.413333v-47.388445z m0-237.056h47.388445v47.445334H259.413333v-47.445334z m0-236.999111h47.388445v47.388445H259.413333v-47.388445zM851.968 881.777778H188.302222C135.907556 881.777778 93.468444 839.338667 93.468444 786.944v-805.888A94.833778 94.833778 0 0 1 188.302222-113.777778h663.665778a94.833778 94.833778 0 0 1 94.833778 94.833778V786.944c0 52.337778-42.439111 94.833778-94.833778 94.833778z m47.445333-900.721778c0-26.168889-21.276444-47.445333-47.445333-47.445333H188.302222a47.388444 47.388444 0 0 0-47.445333 47.445333V786.944c0 26.168889 21.219556 47.445333 47.445333 47.445333h663.665778c26.168889 0 47.445333-21.219556 47.445333-47.445333v-805.888zM401.635556 597.333333h379.221333v47.388445H401.635556v-47.388445z m0-237.056h379.221333v47.445334H401.635556v-47.445334z m0-236.999111h379.221333v47.388445H401.635556v-47.388445z"  horiz-adv-x="1024" />

    
    <glyph glyph-name="shouye" unicode="&#58885;" d="M499.1488 673.28a17.92 17.92 0 0 0 25.4976 0l318.4128-318.8224a30.464 30.464 0 0 0 8.8576-21.504v-305.408c0-57.5488-46.592-104.3456-104.1408-104.3456h-109.4144a20.0192 20.0192 0 0 0-20.0192 20.0704v271.6672c0 10.8544-13.3632 17.5104-25.6512 17.5104H431.3088c-10.7008 0-25.6-5.4272-25.6-17.5104v-271.6672a20.0192 20.0192 0 0 0-20.0704-20.0704H276.224a104.2432 104.2432 0 0 0-104.1408 104.3456v305.3568c0 8.0896 3.1744 15.872 8.8576 21.5552zM404.1728 799.9488a151.8592 151.8592 0 0 0 215.552 0l308.48-310.9888c28.7744-29.0304 44.5952-67.4816 44.5952-108.544 0-21.7088-4.5056-42.7008-12.9536-62.0032a4.096 4.096 0 0 0-6.656-1.1776l-207.5648 209.2032-198.656 200.192a49.2032 49.2032 0 0 1-69.9392 0L279.1424 527.2064l-208.384-209.92a4.096 4.096 0 0 0-6.656 1.2288A153.856 153.856 0 0 0 51.2 380.4672c0 41.1136 15.872 79.5648 44.5952 108.544z"  horiz-adv-x="1024" />

    
    <glyph glyph-name="23" unicode="&#58956;" d="M236.48 270.528l274.304 274.24 274.24-274.24z"  horiz-adv-x="1024" />

    
    <glyph glyph-name="xiangzi" unicode="&#59039;" d="M63.8 595.8v-440.2L496.9-51V411L63.8 595.8z m298.9-311.2l-166.9 78.2 0.9 61.7 166.9-78.2-0.9-61.7z m390.4 253.9l206.6 88.2L510.4 819l-180.7-77.9zM287.6 722.8l-221-96.5 444.3-191.2 199.9 85.3z m473.2-212.4l2.8-89.6-42.1-17.8-2.7 89.4L528.6 411v-462l431.6 206.5V595.8z"  horiz-adv-x="1024" />

    
    <glyph glyph-name="zan" unicode="&#58884;" d="M43.092174 494.139769C18.852183 494.139769 0.00019 475.288776 0.00019 451.049785v-533.263802C0.00019-109.14700700000003 18.853183-128 43.092174-128h123.889954V494.139769H43.092174z m961.489643-16.159994c-21.544992 37.706986-67.329975 64.639976-110.421959 61.945977H657.152946c16.159994 48.478982 24.239991 102.343962 24.239991 153.515943 0 35.011987-2.692999 67.329975-10.772996 102.342962-16.159994 67.331975-80.79797 113.116958-148.129945 96.957964-56.556979-13.466995-99.649963-64.639976-96.955964-126.582953v-5.386998c0-113.115958-72.717973-215.45992-177.754934-250.471907V-128h562.889791c24.239991 0 48.477982 8.079997 67.329975 21.545992s32.319988 29.625989 43.092984 48.478982l2.692999 2.692999c2.693999 5.385998 5.386998 8.079997 5.386998 13.465995l94.263965 425.533842V402.569803c2.692999 24.238991-5.386998 51.169981-18.852993 75.409972z"  horiz-adv-x="1024" />

    
    <glyph glyph-name="erji" unicode="&#58901;" d="M313.853453 11.264h-123.898906c-22.018547 0-40.450547 17.917453-40.450547 40.450547v245.245453c0 22.018547 17.922547 40.450547 40.450547 40.450547h123.898906c22.018547 0 40.450547-17.922547 40.450547-40.450547v-245.250547a40.20601 40.20601 0 0 0-40.450547-40.445453z m-111.616 52.224h99.842547v220.674547H202.237453v-220.674547z m620.034547-52.224h-123.904c-22.013453 0-40.450547 17.917453-40.450547 40.450547v245.245453c0 22.018547 17.922547 40.450547 40.450547 40.450547h123.904c22.018547 0 40.450547-17.922547 40.450547-40.450547v-245.250547a40.20601 40.20601 0 0 0-40.450547-40.445453z m-111.616 52.224h99.837453v220.674547h-99.837453v-220.674547zM862.722547 144.384h-52.224V398.845453c0 167.426547-136.197095 304.128-304.133094 304.128S202.237453 566.277095 202.237453 398.855642v-254.466547h-52.218906V398.845453c0 196.613095 159.744 356.352 356.346906 356.352 196.613095 0 356.352-159.738905 356.352-356.346906v-254.466547z"  horiz-adv-x="1024" />

    
    <glyph glyph-name="gouwucheman" unicode="&#58905;" d="M346.112 89.08799999999997q19.456 0 36.864-7.168t30.208-19.968 20.48-30.208 7.68-36.864-7.68-36.864-20.48-30.208-30.208-20.48-36.864-7.68q-20.48 0-37.888 7.68t-30.208 20.48-20.48 30.208-7.68 36.864 7.68 36.864 20.48 30.208 30.208 19.968 37.888 7.168zM772.096 87.03999999999996q19.456 0 37.376-7.168t30.72-19.968 20.48-30.208 7.68-36.864-7.68-36.864-20.48-30.208-30.72-20.48-37.376-7.68-36.864 7.68-30.208 20.48-20.48 30.208-7.68 36.864 7.68 36.864 20.48 30.208 30.208 19.968 36.864 7.168zM944.128 668.672q28.672 0 44.544-7.68t22.528-18.944 6.144-24.064-3.584-22.016-13.312-37.888-22.016-62.976-23.552-68.096-18.944-53.248q-13.312-40.96-33.28-56.832t-49.664-15.872l-35.84 0-65.536 0-86.016 0-96.256 0-253.952 0 14.336-92.16 517.12 0q49.152 0 49.152-41.984 0-20.48-9.728-35.328t-38.4-14.848l-49.152 0-94.208 0-118.784 0-119.808 0-99.328 0-55.296 0q-20.48 0-34.304 9.216t-23.04 24.064-14.848 32.256-8.704 32.768q-1.024 6.144-5.632 29.696t-11.264 58.88-14.848 78.848-16.384 87.552q-19.456 103.424-44.032 230.4l-76.8 0q-15.36 0-25.6 7.68t-16.896 18.432-9.216 23.04-2.56 22.528q0 20.48 13.824 33.792t37.376 13.312l21.504 0 21.504 0 25.6 0 34.816 0q20.48 0 32.768-6.144t19.456-15.36 10.24-19.456 5.12-17.408q2.048-8.192 4.096-23.04t4.096-30.208q3.072-18.432 6.144-38.912l700.416 0zM867.328 701.44l-374.784 0 135.168 135.168q23.552 23.552 51.712 24.064t51.712-23.04z"  horiz-adv-x="1024" />

    
    <glyph glyph-name="yuanxin-kongxin-shanchu" unicode="&#58886;" d="M511.649684 893.844211C230.292211 893.844211 2.263579 665.707789 2.263579 384.458105s228.001684-509.413053 509.386105-509.413052c281.276632 0 509.386105 228.028632 509.386105 509.413052C1021.062737 665.8155790000001 792.926316 893.844211 511.649684 893.844211z m0-993.28C244.385684-99.435789 27.755789 117.22105299999998 27.755789 384.458105c0 267.264 216.629895 483.893895 483.893895 483.893895s483.893895-216.629895 483.893895-483.893895c0-267.237053-216.629895-483.893895-483.893895-483.893894zM649.48188053 587.35202774a156.30910827 156.30910827 0 0 1-108.22063146-43.2882528c-2.8456416-2.61569173-17.6487296-17.61998613-29.1175296-29.26124907l-29.03129814 28.94506667a156.42408427 156.42408427 0 0 1-108.6230464 43.6044352 157.31514347 157.31514347 0 0 1-157.14268053-157.14268053c0-50.58919253 25.2658528-88.58857493 46.9387232-112.0435648l194.5384416-196.493024c15.40670827-15.34922133 32.48056107-25.40957227 53.1761408-25.40957227 20.69557867 0 37.79817493 10.06035093 53.29111573 25.49580373l194.36597867 196.40679254 1.3797056 1.55216853c23.45498987 29.26124907 45.6165056 56.88409813 45.6165056 110.5201408a157.343888 157.343888 0 0 1-157.17142507 157.113936z"  horiz-adv-x="1024" />

    


  </font>
</defs>
</svg>
